<?xml version="1.0" encoding="UTF-8"?><svg id="b" xmlns="http://www.w3.org/2000/svg" width="240" height="160" xmlns:xlink="http://www.w3.org/1999/xlink" viewBox="0 0 240 160"><defs><style>.n{fill:url(#k);}.o{fill:url(#d);}.p{fill:url(#l);}.q{fill:url(#h);}.r{fill:url(#j);}.s{fill:url(#g);}.t{fill:url(#m);}.u{fill:url(#e);}.v{fill:url(#i);}.w{fill:url(#f);}.x{fill:#0f2953;}</style><linearGradient id="d" x1=".3" y1="842.71" x2="3.23" y2="842.71" gradientTransform="translate(-23631.74 13959.28) rotate(-120.18) scale(32.71)" gradientUnits="userSpaceOnUse"><stop offset="0" stop-color="#d40001"/><stop offset=".08" stop-color="#d60601"/><stop offset=".19" stop-color="#db1701"/><stop offset=".32" stop-color="#e53301"/><stop offset=".46" stop-color="#f25a01"/><stop offset=".57" stop-color="#ff7f01"/><stop offset="1" stop-color="#ffd900"/></linearGradient><linearGradient id="e" x1=".3" y1="842.4" x2="3.23" y2="842.4" gradientTransform="translate(-23644.97 13966.96) rotate(-120.18) scale(32.74)" xlink:href="#d"/><linearGradient id="f" x1=".31" y1="842.19" x2="3.24" y2="842.19" gradientTransform="translate(-23559.22 13916.93) rotate(-120.18) scale(32.62)" xlink:href="#d"/><linearGradient id="g" x1=".27" y1="841.98" x2="3.2" y2="841.98" gradientTransform="translate(-23621.5 13953.8) rotate(-120.18) scale(32.7)" xlink:href="#d"/><linearGradient id="h" x1=".3" y1="841.8" x2="3.23" y2="841.8" gradientTransform="translate(-23686.91 13991.29) rotate(-120.18) scale(32.78)" xlink:href="#d"/><linearGradient id="i" x1="-1.67" y1="842.7" x2="1.27" y2="842.7" gradientTransform="translate(43809.76 73.83) rotate(90) scale(51.86)" gradientUnits="userSpaceOnUse"><stop offset="0" stop-color="#1d4a7a"/><stop offset=".13" stop-color="#82d0de"/><stop offset=".43" stop-color="#3678af"/><stop offset=".76" stop-color="#041333"/><stop offset="1" stop-color="#041333"/></linearGradient><linearGradient id="j" y1="842.83" y2="842.83" gradientTransform="translate(43805.76 73.83) rotate(90) scale(51.86)" xlink:href="#i"/><linearGradient id="k" y1="842.98" y2="842.98" gradientTransform="translate(43802.76 73.83) rotate(90) scale(51.86)" xlink:href="#i"/><linearGradient id="l" y1="843.1" y2="843.1" gradientTransform="translate(43798.26 73.83) rotate(90) scale(51.86)" xlink:href="#i"/><linearGradient id="m" y1="843.22" y2="843.22" gradientTransform="translate(43794.26 73.83) rotate(90) scale(51.86)" xlink:href="#i"/></defs><g id="c"><path class="o" d="M151.82,6.11c-1.68-2.9-4.25-4.74-7.07-5.58-2.8.85-5.35,2.7-7.01,5.58h0s-1.58,2.73-1.58,2.73c1.02-1.54,2.77-2.73,5.07-2.73,1.07,0,3.7.3,5.3,3.06l51.14,88.56h7.05L151.82,6.11Z"/><path class="u" d="M194.09,97.73h0L142.65,8.65c-.94-1.34-2.15-1.98-3.19-2.28-1.16.34-2.54,1.1-3.52,2.8l-.02.04,51.12,88.53h7.05Z"/><polygon class="w" points="183.46 97.73 183.47 97.73 134.13 12.3 130.6 18.4 176.41 97.73 183.46 97.73"/><polygon class="s" points="172.84 97.73 128.81 21.49 125.28 27.59 165.79 97.73 172.84 97.73"/><polygon class="q" points="162.21 97.73 162.21 97.73 123.49 30.69 119.96 36.79 155.16 97.73 162.21 97.73"/><path class="v" d="M130.65,6.11l-53,91.62h7.05L137.73,6.11h0c1.66-2.89,4.22-4.75,7.04-5.59-1.15-.34-2.35-.52-3.55-.52-4.12,0-8.22,2.04-10.58,6.11Z"/><path class="r" d="M120.02,6.11l-53.01,91.62h7.05L127.11,6.11h0c1.66-2.89,4.22-4.75,7.03-5.59-1.15-.34-2.34-.52-3.54-.52-4.12,0-8.23,2.04-10.59,6.11Z"/><path class="n" d="M109.4,6.11l-53.01,91.62h7.05L116.48,6.11h0c1.66-2.89,4.22-4.75,7.04-5.59-1.15-.34-2.35-.52-3.54-.52-4.11,0-8.23,2.04-10.58,6.11Z"/><path class="p" d="M98.77,6.11l-53,91.62h7.05L105.85,6.11h0c1.66-2.89,4.22-4.75,7.04-5.59-1.15-.34-2.35-.52-3.54-.52-4.11,0-8.22,2.04-10.58,6.11Z"/><path class="t" d="M95.23,6.11c1.66-2.89,4.22-4.75,7.04-5.59h0c-1.15-.34-2.35-.52-3.54-.52-4.11,0-8.23,2.04-10.58,6.11l-53,91.62h7.05L95.23,6.11Z"/></g></svg>